<?xml version="1.0" standalone="no"?>
<!DOCTYPE svg PUBLIC "-//W3C//DTD SVG 20010904//EN"
 "http://www.w3.org/TR/2001/REC-SVG-20010904/DTD/svg10.dtd">
<svg version="1.0" xmlns="http://www.w3.org/2000/svg"
 width="512.000000pt" height="512.000000pt" viewBox="0 0 512.000000 512.000000"
 preserveAspectRatio="xMidYMid meet">
<metadata>
Created by potrace 1.14, written by Peter Selinger 2001-2017
</metadata>
<g transform="translate(0.000000,512.000000) scale(0.100000,-0.100000)"
fill="#000000" stroke="none">
<path d="M3356 4963 c-48 -12 -278 -104 -341 -136 -81 -41 -227 -135 -323
-209 -63 -48 -67 -50 -70 -28 -4 22 -7 22 -70 17 -37 -4 -115 -9 -174 -13
l-108 -7 0 -48 c0 -27 -4 -49 -8 -49 -4 0 -65 29 -135 64 -142 72 -224 101
-407 146 -69 17 -133 33 -142 36 -22 6 -38 -30 -72 -167 -21 -82 -26 -126 -26
-225 0 -189 35 -322 135 -519 l62 -121 -29 -84 c-44 -132 -57 -224 -69 -505
-6 -143 -12 -266 -15 -272 -2 -9 -25 -13 -69 -13 l-67 0 8 -32 c3 -19 29 -57
57 -88 63 -69 94 -135 107 -233 20 -143 60 -227 146 -308 105 -97 204 -134
349 -127 79 3 101 8 160 37 156 77 255 235 255 407 0 23 3 50 6 59 10 26 83
58 117 51 52 -10 67 -32 67 -95 0 -107 50 -236 119 -306 108 -112 202 -155
339 -155 141 0 237 36 329 123 82 78 120 148 155 290 36 146 45 165 114 237
91 96 94 140 9 140 l-52 0 -7 203 c-16 468 -68 758 -159 890 l-33 47 17 108
c35 208 20 424 -42 627 -27 88 -102 267 -111 264 -2 -1 -12 -4 -22 -6z m-457
-981 c139 -99 197 -132 439 -248 146 -71 219 -111 224 -124 14 -39 59 -287 73
-410 8 -69 15 -182 15 -252 l0 -128 -71 0 c-66 0 -74 2 -110 33 -140 121 -354
141 -523 49 -51 -27 -180 -145 -188 -171 -3 -12 -12 -12 -50 -3 -64 16 -147
15 -198 -3 -55 -19 -57 -19 -66 7 -10 32 -92 117 -149 153 -169 108 -401 92
-521 -35 -27 -28 -34 -30 -101 -30 l-73 0 0 63 c1 266 35 541 92 742 l31 110
102 105 c63 65 101 111 98 120 -4 13 -3 13 5 1 9 -12 13 -13 27 -1 9 7 14 19
11 27 -3 7 -1 13 4 13 6 0 10 -5 10 -11 0 -5 5 -7 10 -4 6 4 8 10 5 15 -9 15
58 3 140 -26 72 -26 93 -29 210 -29 143 0 238 20 365 75 36 15 71 28 79 29 7
1 57 -30 110 -67z m-1032 -79 c-9 -2 -15 -9 -12 -14 4 -5 1 -9 -4 -9 -12 0
-14 13 -4 23 3 4 13 6 22 6 13 -1 12 -2 -2 -6z m-97 -17 c0 -2 -8 -10 -17 -17
-16 -13 -17 -12 -4 4 13 16 21 21 21 13z m69 -19 c-2 -2 -12 -9 -21 -16 -15
-11 -18 -11 -18 1 0 7 10 14 21 15 12 1 20 1 18 0z m-44 -37 c3 -5 1 -10 -4
-10 -6 0 -11 5 -11 10 0 6 2 10 4 10 3 0 8 -4 11 -10z m1470 -1023 c17 -6 51
-25 77 -41 26 -17 62 -40 79 -51 19 -11 44 -42 58 -70 23 -44 26 -62 26 -155
0 -96 -2 -110 -28 -159 -35 -66 -101 -131 -164 -162 -40 -20 -63 -24 -138 -24
-75 1 -98 5 -140 25 -69 34 -131 99 -167 177 -30 63 -31 69 -25 160 5 76 12
104 34 144 72 133 254 206 388 156z m-1101 -11 c64 -28 147 -102 182 -161 29
-50 45 -152 33 -223 -21 -137 -145 -257 -279 -270 -95 -9 -215 45 -279 127
-112 142 -109 326 7 452 89 94 223 125 336 75z"/>
<path d="M3105 2764 c-90 -47 -120 -132 -74 -213 30 -55 80 -84 150 -89 51 -4
65 -1 98 21 43 28 81 96 81 143 0 44 -40 106 -85 131 -48 27 -126 30 -170 7z"/>
<path d="M1954 2761 c-110 -67 -107 -222 6 -278 55 -28 101 -29 154 -3 55 27
88 78 94 143 3 44 0 57 -22 86 -41 55 -73 71 -141 71 -41 0 -70 -6 -91 -19z"/>
<path d="M1335 2718 c-55 -43 -67 -118 -41 -245 35 -168 56 -328 50 -383 -7
-64 10 -110 55 -147 20 -16 26 -31 27 -65 3 -123 39 -341 59 -362 8 -7 12 -16
9 -19 -5 -4 43 -102 128 -261 15 -28 40 -86 55 -130 15 -43 38 -89 49 -101 12
-13 19 -26 16 -30 -3 -3 4 -19 16 -35 12 -16 22 -32 22 -36 0 -24 128 -171
287 -330 92 -93 248 -175 378 -198 96 -17 291 -27 320 -16 11 4 23 8 28 9 4 0
22 8 40 18 17 9 34 18 37 18 23 6 58 26 69 38 7 9 22 14 33 12 12 -3 33 6 50
20 16 14 34 23 38 20 5 -3 17 6 26 20 9 14 21 25 28 26 16 1 149 155 152 176
2 10 8 19 13 21 6 2 28 33 48 69 21 36 46 79 56 96 10 18 24 37 32 42 7 6 20
26 29 45 8 19 33 67 55 105 71 123 102 186 96 195 -3 4 -1 10 4 12 10 3 59
115 87 198 10 30 25 61 31 68 7 7 14 19 15 25 0 7 2 17 2 22 1 6 4 15 8 20 27
44 56 258 38 280 -9 11 -3 12 27 8 32 -4 45 0 70 21 17 14 38 44 47 65 29 73
55 234 67 422 12 173 11 189 -5 213 -22 34 -53 46 -121 46 -43 0 -59 -5 -84
-26 -40 -33 -85 -109 -77 -130 3 -8 2 -12 -3 -9 -13 7 -24 -36 -36 -135 -9
-85 -39 -160 -152 -385 -36 -71 -84 -159 -107 -195 -23 -36 -57 -91 -76 -122
-38 -64 -58 -78 -77 -51 -7 10 -16 23 -20 28 -4 6 -15 24 -23 39 -20 38 -170
119 -253 137 -34 8 -107 14 -162 14 l-100 0 55 22 c31 13 71 39 92 61 l36 39
-26 68 c-30 76 -42 65 -18 -15 19 -63 12 -80 -47 -114 -66 -37 -143 -59 -196
-54 -69 7 -202 67 -221 100 -14 25 -13 32 2 75 22 61 6 79 -17 19 -20 -51 -15
-104 13 -129 9 -8 44 -25 77 -37 81 -30 86 -37 18 -29 -87 9 -245 -16 -316
-52 -82 -41 -114 -67 -155 -124 -35 -49 -70 -84 -84 -85 -32 -1 -269 529 -312
696 -9 34 -25 114 -36 178 -23 133 -42 177 -99 229 -48 43 -85 48 -126 15z
m93 -21 c46 -48 48 -106 16 -333 -8 -56 -14 -141 -14 -190 0 -49 -3 -119 -7
-157 -6 -64 -7 -67 -24 -51 -27 25 -37 70 -37 164 0 54 -11 146 -31 252 -17
92 -31 188 -31 213 0 102 74 160 128 102z m2517 -39 c14 -6 28 -23 32 -37 10
-39 -15 -362 -37 -474 -23 -116 -50 -179 -86 -195 -36 -17 -52 -15 -78 11 -22
22 -23 27 -19 187 1 91 5 171 8 179 3 8 0 18 -7 23 -10 6 -10 8 0 8 9 0 12 30
12 114 0 63 4 126 10 140 18 48 105 72 165 44z m-1582 -1086 c133 -50 293 -49
499 3 56 14 103 24 105 22 7 -7 -98 -97 -145 -124 -85 -50 -170 -75 -255 -75
-68 0 -87 5 -150 35 -71 34 -167 110 -189 150 -9 17 -7 24 11 38 21 17 22 17
44 -5 13 -13 49 -33 80 -44z"/>
</g>
</svg>
