<svg height="275" width="369.89473684210526" style="width: 369.895px; height: 275px; position: absolute; top: 50%; left: 50%; transform: translate(-50%, -50%) scale(1); z-index: 0; cursor: pointer;"><defs id="SvgjsDefs1001"></defs><g id="SvgjsG1007" featurekey="rootContainer" transform="matrix(1,0,0,1,0,0)" fill="#ffffff"><path xmlns="http://www.w3.org/2000/svg" fill-rule="evenodd" d="M5,65 L185,0 L365, 65 L185, 10 z M5,195 L185,275 L365,190 L185, 265 z"></path></g><g id="SvgjsG1008" featurekey="symbolFeature-0" transform="matrix(2.970923287695185,0,0,2.970923287695185,0.003580500657957094,90.00360802565903)" fill="#daff68"><path xmlns="http://www.w3.org/2000/svg" d="M8.031 0a.502.502 0 0 0 .156 1c1.194 0 2.118.446 2.875 1.156.757.71 1.324 1.691 1.75 2.688.323.754.551 1.476.719 2.125-.324.421-.531.948-.531 1.531 0 .127-.002.938 0 1.313 0 0-4.494-2.225-9.094-4.125-3.3-1.3-3.906-.194-3.906.906-.096 7.208 5.554 7.402 13.094 7.406.01.339.018.646.031 1-2.619-.001-5.05-.029-7.125-.406-1.7.7-3 1.706-3 2.906 0 3.347 4.834 3.445 10.219-.469.269 5.26.875 10.969 2.281 10.969 1.401 0 2.01-5.663 2.281-10.906 5.385 3.858 10.219 3.763 10.219.5 0-1.3-1.294-2.3-3.094-3-2.159.375-4.664.405-7.031.406.013-.354.021-.661.031-1 6.693-.005 13.189-.23 13.094-7.406 0-1.1-.606-2.206-3.906-.906-4.6 1.9-9.094 4.313-9.094 4.313.003-.464 0-1.355 0-1.5 0-.583-.207-1.11-.531-1.531.168-.649.396-1.371.719-2.125.426-.996.993-1.978 1.75-2.688.757-.71 1.681-1.156 2.875-1.156a.5.5 0 1 0 0-1c-1.456 0-2.66.591-3.563 1.438-.902.846-1.539 1.952-2 3.031-.268.627-.462 1.242-.625 1.813-.34-.171-.712-.281-1.125-.281-.413 0-.785.11-1.125.281-.163-.57-.357-1.185-.625-1.813-.461-1.079-1.098-2.185-2-3.031-.902-.846-2.107-1.438-3.563-1.438a.5.5 0 0 0-.094 0 .502.502 0 0 0-.063 0zm2.313 26a.502.502 0 0 0 .156 1h1a.5.5 0 1 0 0-1h-1a.5.5 0 0 0-.094 0 .502.502 0 0 0-.063 0zm9 0a.502.502 0 0 0 .156 1h1a.5.5 0 1 0 0-1h-1a.5.5 0 0 0-.094 0 .502.502 0 0 0-.063 0zm-7 3a.5.5 0 0 0-.188.156l-1 1a.5.5 0 1 0 .688.688l1-1a.5.5 0 0 0-.438-.844.5.5 0 0 0-.063 0zm6 0a.5.5 0 0 0-.188.844l1 1a.5.5 0 1 0 .688-.688l-1-1a.5.5 0 0 0-.438-.156.5.5 0 0 0-.063 0zm-3 1a.5.5 0 0 0-.344.5v1a.5.5 0 1 0 1 0v-1a.5.5 0 0 0-.594-.5.5.5 0 0 0-.063 0z"></path></g><g id="SvgjsG1009" featurekey="nameFeature-0" transform="matrix(1.1608513350330425,0,0,1.1608513350330425,111.9999988929259,97.11622352409236)" fill="#ffffff"><path d="M30.6 11.96 l0 9.36 l-21.24 0 l0 3.12 l15.76 0 l0 3.12 l-18.88 0 l0 -9.36 l21.24 0 l0 -3.12 l-24.36 0 l0 21.8 l3.12 0 l0 -6.24 l3.12 0 l0 9.36 l-9.36 0 l0 -28.04 l30.6 0 z M43.96 40 l-9.36 0 l0 -28.04 l9.36 0 l0 21.8 l-3.12 0 l0 -18.68 l-3.12 0 l0 21.8 l6.24 0 l0 3.12 z M80.32000000000001 40 l-10.8 0 l-3.64 -6.28 l-7 0 l0 6.28 l-9.32 0 l0 -15.6 l22.88 0.04 c2.6 0 4.68 -2.12 4.68 -4.68 c0 -2.6 -2.08 -4.68 -4.68 -4.68 l-19.76 0 l0 3.12 l19.76 0 c0.84 0.04 1.48 0.72 1.48 1.56 s-0.64 1.52 -1.48 1.56 l-0.04 0 l-0.04 0 l-22.8 0 l0 -9.36 l22.88 0 c4.32 0 7.8 3.48 7.8 7.8 c0 4.28 -3.48 7.8 -7.8 7.8 l-19.76 -0.04 l0 9.36 l3.12 0 l0 -6.28 l11.88 0 c1.28 2.32 3.44 5.88 3.64 6.28 l3.6 0 c-0.32 -0.44 -2.16 -3.72 -3.64 -6.28 l3.6 0 c1.32 2.28 2.64 4.64 3.72 6.4 z M114.88 11.96 l0 9.36 l-21.24 0 l0 3.12 l15.76 0 l0 3.12 l-18.88 0 l0 -9.36 l21.24 0 l0 -3.12 l-24.36 0 l0 21.8 l24.36 0 l0 -3.12 l-21.24 0 l0 -3.12 l24.36 0 l0 9.36 l-30.6 0 l0 -28.04 l30.6 0 z M151.08 11.96 l0 9.36 l-21.24 0 l0 3.12 l15.76 0 l0 3.12 l-18.88 0 l0 -9.36 l21.24 0 l0 -3.12 l-24.36 0 l0 21.8 l3.12 0 l0 -6.24 l3.12 0 l0 9.36 l-9.36 0 l0 -28.04 l30.6 0 z M158.20000000000002 15.079999999999998 l0 15.56 l27.64 0 l0 9.36 l-30.76 0 l0 -3.12 l27.68 0 l0 -3.12 l-27.68 0 l0 -21.8 l9.36 0 l0 15.6 l-3.12 0 l0 -12.48 l-3.12 0 z M210.84 11.96 l11.32 0 l-10.68 15.36 l0 12.68 l-9.36 0 l0 -12.6 l-10.68 -15.44 l11.36 0 l2.24 3.28 l-1.84 2.76 l-2 -2.92 l-3.8 0 l7.84 11.32 l0.04 0.04 l0 10.44 l3.2 0 l0 -10.48 l7.72 -11.32 l-3.8 0 l-5.6 8.12 l-1.8 -2.56 z"></path></g><g id="SvgjsG1010" featurekey="sloganFeature-0" transform="matrix(0.7271288943476812,0,0,0.7271288943476812,110.67211720703996,149.86027329188755)" fill="#ffffff"><path d="M1.8262 20 l0 -14.111 l2.9297 0 l0 14.111 l-2.9297 0 z M11.328165625 17.4121 l4.4238 0 l0 2.5879 l-7.3535 0 l0 -14.111 l2.9297 0 l0 11.523 z M20.918009375 17.4121 l4.4238 0 l0 2.5879 l-7.3535 0 l0 -14.111 l2.9297 0 l0 11.523 z M32.802753125 20.19531 c-3.0957 0 -5.5176 -1.582 -5.5176 -5.1367 l0 -9.1699 l2.9297 0 l0 8.7695 c0 2.1484 1.1426 2.9492 2.5879 2.9492 c1.4551 0 2.6074 -0.81055 2.6074 -2.9492 l0 -8.7695 l2.9297 0 l0 9.1699 c0 3.5547 -2.4316 5.1367 -5.5371 5.1367 z M57.871046875000005 20 l-2.9199 0 l-0.92773 -10.635 l-3.5742 10.635 l-1.8945 0 l-3.5742 -10.635 l-0.9375 10.635 l-2.9297 0 l1.1816 -14.111 l4.1797 0 l3.0078 8.8574 l3.0469 -8.8574 l4.1797 0 z M60.937528125 20 l0 -14.111 l2.9297 0 l0 14.111 l-2.9297 0 z M77.14859375 5.888999999999999 l2.9199 0 l0 14.111 l-3.3887 0 l-6.25 -10.088 l0 10.088 l-2.9199 0 l0 -14.111 l3.3496 0 l6.2891 10.029 l0 -10.029 z M93.16453125 20 l-1.0254 -2.9102 l-5.9277 0 l-1.0254 2.9102 l-2.998 0 l5.1953 -14.111 l3.584 0 l5.1953 14.111 l-2.998 0 z M87.07033125 14.6387 l4.209 0 l-2.0996 -5.9863 z M106.465078125 5.888999999999999 l0 2.5781 l-3.3496 0 l0 11.533 l-2.9004 0 l0 -11.533 l-3.3691 0 l0 -2.5781 l9.6191 0 z M116.86546875 8.467 l-5.2344 0 l0 3.2031 l4.6387 0 l0 2.5488 l-4.6387 0 l0 3.1934 l5.2344 0 l0 2.5879 l-8.1836 0 l0 -14.111 l8.1836 0 l0 2.5781 z M119.882840625 20 l0 -14.111 l5.1074 0 c4.502 0 6.7285 2.832 6.7285 7.0508 c0 4.2285 -2.2266 7.0605 -6.7285 7.0605 l-5.1074 0 z M122.812540625 17.4121 l2.0313 0 c2.5977 0 3.7891 -1.6211 3.7891 -4.4727 s-1.1914 -4.4727 -3.7891 -4.4727 l-2.0313 0 l0 8.9453 z M147.23633125 12.5488 c1.5918 0.43945 2.6563 1.4844 2.6563 3.4961 c0 2.3828 -1.4453 3.9551 -4.4238 3.9551 l-5.8105 0 l0 -14.111 l4.5703 0 c3.0469 0 4.6484 1.4648 4.6484 3.8672 c0 1.2402 -0.53711 2.2559 -1.6406 2.793 z M144.25783125 8.32 l-1.7773 0 l0 3.3203 l1.9043 0 c1.25 0 1.7969 -0.74219 1.7969 -1.6992 c0 -0.9375 -0.61523 -1.6211 -1.9238 -1.6211 z M144.92183125 17.4902 c1.582 0 2.1289 -0.84961 2.1289 -1.7676 c0 -0.9375 -0.53711 -1.8262 -2.1875 -1.8262 l-2.3828 0 l0 3.5938 l2.4414 0 z M163.085828125 5.888999999999999 l-4.6387 7.3535 l0 6.7578 l-2.9395 0 l0 -6.6895 l-4.668 -7.4219 l3.2422 0 l2.8809 4.8047 l2.8906 -4.8047 l3.2324 0 z M176.3672 20.19531 c-4.0723 0 -7.0703 -2.8125 -7.0703 -7.2168 c0 -4.4629 3.0664 -7.2852 7.2168 -7.2852 c2.7246 0 4.9805 1.2012 6.2109 3.3203 l-2.5684 1.3672 c-0.74219 -1.4453 -2.0703 -2.1387 -3.6426 -2.1387 c-2.4414 0 -4.2773 1.6797 -4.2773 4.668 c0 2.8809 1.7188 4.7363 4.3848 4.7363 c1.8066 0 3.4668 -0.89844 3.8672 -2.959 l-3.8574 0 l0 -2.3535 l6.6309 0 l0 7.666 l-2.3047 0 l0 -1.9531 c-0.9082 1.3379 -2.4316 2.1484 -4.5898 2.1484 z M193.74995625 20 l-3.6719 -6.2109 l-0.84961 0 l0 6.2109 l-2.9297 0 l0 -14.111 l5.1172 0 c3.1934 0 4.541 1.8848 4.541 4.2188 c0 1.8945 -1.0742 3.125 -2.9883 3.5352 l4.248 6.3574 l-3.4668 0 z M189.22855625 8.32 l0 3.3691 l1.7285 0 c1.5625 0 2.1973 -0.66406 2.1973 -1.6797 c0 -1.0059 -0.63477 -1.6895 -2.1973 -1.6895 l-1.7285 0 z M207.5490625 8.467 l-5.2344 0 l0 3.2031 l4.6387 0 l0 2.5488 l-4.6387 0 l0 3.1934 l5.2344 0 l0 2.5879 l-8.1836 0 l0 -14.111 l8.1836 0 l0 2.5781 z M220.010234375 20 l-1.0254 -2.9102 l-5.9277 0 l-1.0254 2.9102 l-2.998 0 l5.1953 -14.111 l3.584 0 l5.1953 14.111 l-2.998 0 z M213.916034375 14.6387 l4.209 0 l-2.0996 -5.9863 z M233.31078125 5.888999999999999 l0 2.5781 l-3.3496 0 l0 11.533 l-2.9004 0 l0 -11.533 l-3.3691 0 l0 -2.5781 l9.6191 0 z M245.166171875 5.888999999999999 l2.9199 0 l0 14.111 l-3.3887 0 l-6.25 -10.088 l0 10.088 l-2.9199 0 l0 -14.111 l3.3496 0 l6.2891 10.029 l0 -10.029 z M259.922109375 8.467 l-5.2344 0 l0 3.2031 l4.6387 0 l0 2.5488 l-4.6387 0 l0 3.1934 l5.2344 0 l0 2.5879 l-8.1836 0 l0 -14.111 l8.1836 0 l0 2.5781 z M267.62698125 20.19531 c-3.0273 0 -5.3906 -1.4551 -5.8203 -4.1016 l3.0273 -0.69336 c0.19531 1.582 1.3574 2.4023 2.9102 2.4023 c1.1914 0 2.1387 -0.52734 2.1289 -1.7188 c-0.0097656 -1.3281 -1.5723 -1.748 -3.291 -2.2754 c-2.0703 -0.64453 -4.2871 -1.4063 -4.2871 -4.0039 c0 -2.627 2.1484 -4.1113 4.9805 -4.1113 c2.4805 0 4.9805 1.0059 5.5469 3.7109 l-2.832 0.70313 c-0.26367 -1.4063 -1.2109 -2.0215 -2.5391 -2.0215 c-1.1816 0 -2.1875 0.48828 -2.1875 1.6504 c0 1.084 1.3867 1.4453 2.9883 1.9238 c2.1289 0.64453 4.6484 1.4648 4.6484 4.2773 c0 2.998 -2.5098 4.2578 -5.2734 4.2578 z M280.292996875 20.19531 c-3.0273 0 -5.3906 -1.4551 -5.8203 -4.1016 l3.0273 -0.69336 c0.19531 1.582 1.3574 2.4023 2.9102 2.4023 c1.1914 0 2.1387 -0.52734 2.1289 -1.7188 c-0.0097656 -1.3281 -1.5723 -1.748 -3.291 -2.2754 c-2.0703 -0.64453 -4.2871 -1.4063 -4.2871 -4.0039 c0 -2.627 2.1484 -4.1113 4.9805 -4.1113 c2.4805 0 4.9805 1.0059 5.5469 3.7109 l-2.832 0.70313 c-0.26367 -1.4063 -1.2109 -2.0215 -2.5391 -2.0215 c-1.1816 0 -2.1875 0.48828 -2.1875 1.6504 c0 1.084 1.3867 1.4453 2.9883 1.9238 c2.1289 0.64453 4.6484 1.4648 4.6484 4.2773 c0 2.998 -2.5098 4.2578 -5.2734 4.2578 z"></path></g></svg>